<svg xmlns="http://www.w3.org/2000/svg" xmlns:xlink="http://www.w3.org/1999/xlink" viewBox="105 162 420 440" preserveAspectRatio="xMidYMid meet" version="1.0"><defs><clipPath id="d08bbf0651"><path d="M 239 177.101562 L 373 177.101562 L 373 311 L 239 311 Z M 239 177.101562 " clip-rule="nonzero"/></clipPath><clipPath id="6d0fa48f23"><path d="M 307.503906 178.90625 L 315.96875 224.625 C 316.875 229.511719 320.695312 233.332031 325.582031 234.238281 L 371.300781 242.703125 C 372.027344 242.839844 372.550781 243.46875 372.550781 244.207031 C 372.550781 244.941406 372.027344 245.574219 371.300781 245.707031 L 325.582031 254.175781 C 320.695312 255.082031 316.875 258.902344 315.96875 263.789062 L 307.503906 309.507812 C 307.367188 310.234375 306.738281 310.757812 306 310.757812 C 305.261719 310.757812 304.632812 310.234375 304.496094 309.507812 L 296.03125 263.789062 C 295.125 258.902344 291.304688 255.082031 286.417969 254.175781 L 240.699219 245.707031 C 239.972656 245.574219 239.449219 244.941406 239.449219 244.207031 C 239.449219 243.46875 239.972656 242.839844 240.699219 242.703125 L 286.417969 234.238281 C 291.304688 233.332031 295.125 229.511719 296.03125 224.625 L 304.496094 178.90625 C 304.632812 178.179688 305.261719 177.65625 306 177.65625 C 306.738281 177.65625 307.367188 178.179688 307.503906 178.90625 Z M 307.503906 178.90625 " clip-rule="nonzero"/></clipPath><clipPath id="aba69e1235"><path d="M 0.28125 0.601562 L 133.71875 0.601562 L 133.71875 133.800781 L 0.28125 133.800781 Z M 0.28125 0.601562 " clip-rule="nonzero"/></clipPath><clipPath id="7f82c13792"><path d="M 68.503906 1.90625 L 76.96875 47.625 C 77.875 52.511719 81.695312 56.332031 86.582031 57.238281 L 132.300781 65.703125 C 133.027344 65.839844 133.550781 66.46875 133.550781 67.207031 C 133.550781 67.941406 133.027344 68.574219 132.300781 68.707031 L 86.582031 77.175781 C 81.695312 78.082031 77.875 81.902344 76.96875 86.789062 L 68.503906 132.507812 C 68.367188 133.234375 67.738281 133.757812 67 133.757812 C 66.261719 133.757812 65.632812 133.234375 65.496094 132.507812 L 57.03125 86.789062 C 56.125 81.902344 52.304688 78.082031 47.417969 77.175781 L 1.699219 68.707031 C 0.972656 68.574219 0.449219 67.941406 0.449219 67.207031 C 0.449219 66.46875 0.972656 65.839844 1.699219 65.703125 L 47.417969 57.238281 C 52.304688 56.332031 56.125 52.511719 57.03125 47.625 L 65.496094 1.90625 C 65.632812 1.179688 66.261719 0.65625 67 0.65625 C 67.738281 0.65625 68.367188 1.179688 68.503906 1.90625 Z M 68.503906 1.90625 " clip-rule="nonzero"/></clipPath><clipPath id="d06df6a173"><rect x="0" width="134" y="0" height="134"/></clipPath></defs><path stroke-linecap="round" transform="matrix(0.447521, 0.601851, -0.601851, 0.447521, 194.012863, 216.639691)" fill="none" stroke-linejoin="miter" d="M 40.228267 100.938969 C 187.325801 4.331351 334.426114 4.354756 481.523956 100.998789 " stroke="#1c5d64" stroke-width="57" stroke-opacity="1" stroke-miterlimit="4"/><g clip-path="url(#d08bbf0651)"><g clip-path="url(#6d0fa48f23)"><g transform="matrix(1, 0, 0, 1, 239, 177)"><g clip-path="url(#d06df6a173)"><g clip-path="url(#aba69e1235)"><g clip-path="url(#7f82c13792)"><rect x="-373.64" width="881.28" fill="#d89500" height="1140.479991" y="-351.239999" fill-opacity="1"/></g></g></g></g></g></g><path stroke-linecap="round" transform="matrix(-0.463625, 0.589535, -0.589535, -0.463625, 523.369488, 283.7836)" fill="none" stroke-linejoin="miter" d="M 40.706334 41.950648 C 169.194844 135.250779 319.583321 134.162014 491.876734 38.67382 " stroke="#ffffff" stroke-width="57" stroke-opacity="1" stroke-miterlimit="4"/><path stroke-linecap="round" transform="matrix(-0.463625, 0.589535, -0.589535, -0.463625, 474.787323, 280.7836)" fill="none" stroke-linejoin="miter" d="M 40.706223 41.950508 C 169.194733 135.250638 319.583211 134.161873 491.876624 38.673679 " stroke="#ffffff" stroke-width="57" stroke-opacity="1" stroke-miterlimit="4"/><path stroke-linecap="round" transform="matrix(-0.463625, 0.589535, -0.589535, -0.463625, 502.36949, 280.7836)" fill="none" stroke-linejoin="miter" d="M 40.706335 41.95065 C 169.194845 135.25078 319.583322 134.162015 491.876735 38.673821 " stroke="#1c5d64" stroke-width="57" stroke-opacity="1" stroke-miterlimit="4"/></svg>
